<?xml version="1.0" encoding="UTF-8"?>
<svg version="1.1" xmlns="http://www.w3.org/2000/svg" width="200" height="200">
<path d="M0 0 C3.75353579 -0.00217302 7.5067703 -0.02035463 11.26025391 -0.03930664 C72.05352538 -0.18058436 72.05352538 -0.18058436 85.41650391 12.00561523 C89.852388 16.70894348 93.22324665 21.64196978 93.51025391 28.25561523 C93.14271453 33.2126848 91.73550717 36.54678162 88.42041016 40.18530273 C78.26101471 47.11827392 65.70298522 47.45887929 53.79541016 48.29467773 C52.5973877 48.37876892 51.39936523 48.46286011 50.16503906 48.54949951 C36.37933502 49.43022336 22.60231165 49.48953183 8.79345703 49.44604492 C5.15040744 49.43465149 1.50765033 49.4414397 -2.13538933 49.45292854 C-65.87164003 49.62295497 -65.87164003 49.62295497 -78.57958984 40.18530273 C-81.62380737 37.14108521 -83.33252965 35.00368962 -84.57958984 30.87280273 C-84.57958984 23.32542643 -81.98938494 17.4624257 -76.74755859 12.03686523 C-57.87184689 -4.08401287 -23.18251746 -0.00149468 0 0 Z " fill="#712004" transform="translate(95.57958984375,75.814697265625)"/>
<path d="M0 0 C2.36497439 1.86708505 3.66030715 3.32061431 5 6 C5.57268722 12.18502203 5.57268722 12.18502203 3.375 15.3125 C1 17 1 17 -2.125 17.8125 C-3.07375 18.204375 -4.0225 18.59625 -5 19 C-6.46022435 22.52451159 -6.46022435 22.52451159 -7 26 C-8.8125 26.6875 -8.8125 26.6875 -11 27 C-12.9581636 25.47698387 -13.89113011 24.21773977 -15 22 C-15.86625 22.66 -16.7325 23.32 -17.625 24 C-21.30066901 26.17817423 -22.83198845 26.79812987 -27 26 C-30.36344489 23.51397551 -31.80057749 22.08574477 -32.5625 17.9375 C-31.86895034 14.31562954 -30.96102497 13.16074795 -28 11 C-25.25 10.25 -25.25 10.25 -23 10 C-23.33 9.01 -23.66 8.02 -24 7 C-24.5775 7.309375 -25.155 7.61875 -25.75 7.9375 C-27.85801505 8.93295155 -29.70653231 9.60457454 -32 10 C-33 9 -33 9 -33.25 6.625 C-33 4 -33 4 -31.7578125 2.36328125 C-28.99453021 0.22020232 -26.60955453 0.52407836 -23.22265625 0.65625 C-19.78146028 1.18845606 -18.23272285 2.36132754 -16 5 C-14.6875 8.75 -14.6875 8.75 -14 12 C-13.82984375 11.38511719 -13.6596875 10.77023438 -13.484375 10.13671875 C-11.53276956 3.62790698 -11.53276956 3.62790698 -9.25 0.9375 C-5.95703716 -0.43456785 -3.52651286 -0.44081411 0 0 Z M-5 7 C-4.67 8.32 -4.34 9.64 -4 11 C-3.34 10.67 -2.68 10.34 -2 10 C-2.33 9.01 -2.66 8.02 -3 7 C-3.66 7 -4.32 7 -5 7 Z M-24 15 C-24 15.99 -24 16.98 -24 18 C-23.01 18 -22.02 18 -21 18 C-21 17.01 -21 16.02 -21 15 C-21.99 15 -22.98 15 -24 15 Z " fill="#D34537" transform="translate(104,46)"/>
<path d="M0 0 C2.24432982 1.87027485 3.69443202 3.38886404 5 6 C5.039992 7.99960012 5.04346799 10.00047242 5 12 C5.804375 12.2475 6.60875 12.495 7.4375 12.75 C10 14 10 14 10.8125 16.125 C10.874375 16.74375 10.93625 17.3625 11 18 C10.1028125 18.3403125 10.1028125 18.3403125 9.1875 18.6875 C6.75480287 19.84871822 6.75480287 19.84871822 5.9375 22.625 C4 25 4 25 1.3671875 25.32421875 C-1.43705874 25.31346077 -4.20428973 25.21359416 -7 25 C-7 24.34 -7 23.68 -7 23 C-8.11375 23.061875 -9.2275 23.12375 -10.375 23.1875 C-11.57125 23.125625 -12.7675 23.06375 -14 23 C-16.68342766 18.97485851 -18.40867959 15.1966528 -17.5 10.3125 C-15.5215135 7.26233332 -13.0581305 5.91133156 -10 4 C-9.34 3.01 -8.68 2.02 -8 1 C-4.95713516 -0.01428828 -3.16374283 -0.3858223 0 0 Z " fill="#F9D6BD" transform="translate(103,11)"/>
<path d="M0 0 C1.2684375 0.12375 1.2684375 0.12375 2.5625 0.25 C4.86289124 3.70058686 5.0363275 6.19095502 5.5625 10.25 C5.8925 10.58 6.2225 10.91 6.5625 11.25 C6.52125 10.321875 6.48 9.39375 6.4375 8.4375 C6.5625 5.25 6.5625 5.25 8.5625 2.25 C11.0625 1.875 11.0625 1.875 13.5625 2.25 C16.07470209 6.01830313 15.68434989 8.74334894 15.375 13.0625 C15.34341797 13.76181641 15.31183594 14.46113281 15.27929688 15.18164062 C14.97963596 19.82421335 14.01818116 23.19412561 11.5625 27.25 C8.2240094 29.87309976 4.67122524 29.62352048 0.5625 29.25 C-1.375 28.125 -1.375 28.125 -2.4375 26.25 C-2.69015405 23.15498792 -2.83685013 21.04870027 -1.4375 18.25 C0.2125 18.25 1.8625 18.25 3.5625 18.25 C2.77875 17.8375 1.995 17.425 1.1875 17 C-1.63512797 15.11824802 -2.25692494 14.33472838 -3.4375 11.25 C-3.66796875 8.70703125 -3.66796875 8.70703125 -3.625 6.0625 C-3.61855469 5.18207031 -3.61210938 4.30164063 -3.60546875 3.39453125 C-3.36504295 0.32490883 -3.07778584 0.31567034 0 0 Z M5.5625 19.25 C6.5625 21.25 6.5625 21.25 6.5625 21.25 Z " fill="#4D85D2" transform="translate(113.4375,130.75)"/>
<path d="M0 0 C1.2684375 0.12375 1.2684375 0.12375 2.5625 0.25 C5.24177341 4.26891012 4.71851248 6.49161923 4.5625 11.25 C5.2225 11.25 5.8825 11.25 6.5625 11.25 C6.52125 10.321875 6.48 9.39375 6.4375 8.4375 C6.5625 5.25 6.5625 5.25 8.5625 2.25 C11.0625 1.875 11.0625 1.875 13.5625 2.25 C17.06651375 7.50602062 15.81275358 13.52525518 14.8125 19.5625 C13.95108739 23.52499799 12.96087563 25.80741751 9.5625 28.25 C6.51266004 29.77491998 3.9201631 29.48562548 0.5625 29.25 C-1.375 28.125 -1.375 28.125 -2.4375 26.25 C-2.8125 23.25 -2.8125 23.25 -2.4375 20.25 C-0.9375 18.375 -0.9375 18.375 0.5625 17.25 C-0.0975 16.46625 -0.7575 15.6825 -1.4375 14.875 C-4.28115411 10.6848807 -3.99906303 6.13836018 -3.4375 1.25 C-2.4375 0.25 -2.4375 0.25 0 0 Z M5.5625 19.25 C5.2325 20.24 4.9025 21.23 4.5625 22.25 C5.2225 22.25 5.8825 22.25 6.5625 22.25 C6.2325 21.26 5.9025 20.27 5.5625 19.25 Z " fill="#D34537" transform="translate(132.4375,44.75)"/>
<path d="M0 0 C3.16115776 1.36983503 3.9927092 1.9890638 6 5 C7.45659106 11.71955688 8.52345853 20.59035472 5.6875 26.9375 C5.130625 27.618125 4.57375 28.29875 4 29 C3.5875 29.598125 3.175 30.19625 2.75 30.8125 C-0.23237427 32.83625397 -2.50645782 32.47370063 -6 32 C-10.04212164 29.52981455 -11.67811019 28.06034291 -13.0625 23.5 C-12.97577711 18.6435183 -11.35758626 16.35758626 -8 13 C-6.35008418 12.29289322 -4.68437744 11.62056011 -3 11 C-3.061875 9.741875 -3.12375 8.48375 -3.1875 7.1875 C-3.20826011 3.27768014 -3.20826011 3.27768014 -1.5 1 C-1.005 0.67 -0.51 0.34 0 0 Z M-4 19 C-4.33 20.32 -4.66 21.64 -5 23 C-4.01 23 -3.02 23 -2 23 C-2 21.68 -2 20.36 -2 19 C-2.66 19 -3.32 19 -4 19 Z " fill="#4D85D2" transform="translate(84,129)"/>
<path d="M0 0 C4.6 2.2 4.6 2.2 6 5 C6.12859209 8.8577627 6.13439664 12.26828497 5.4375 16.0625 C4.91520589 19.56933189 5.37493144 22.5273969 6 26 C4.68 26.33 3.36 26.66 2 27 C0.68 25.02 -0.64 23.04 -2 21 C-2.99 23.475 -2.99 23.475 -4 26 C-8.875 25.125 -8.875 25.125 -10 24 C-10.27887021 20.54961495 -10.23178779 17.08531961 -10.25 13.625 C-10.270625 12.65304688 -10.29125 11.68109375 -10.3125 10.6796875 C-10.31765625 9.74640625 -10.3228125 8.813125 -10.328125 7.8515625 C-10.3374707 6.99385254 -10.34681641 6.13614258 -10.35644531 5.25244141 C-10 3 -10 3 -8.69042969 1.22021484 C-5.85281115 -0.82808346 -3.37904845 -0.34955674 0 0 Z " fill="#F6A700" transform="translate(150,87)"/>
<path d="M0 0 C3.69230769 0.69230769 3.69230769 0.69230769 5 2 C5.04125 3.11375 5.0825 4.2275 5.125 5.375 C5.41375 6.57125 5.7025 7.7675 6 9 C9.3734758 10.68390585 9.3734758 10.68390585 13 12 C15.57387119 14.9059836 16.19924376 17.28022575 16.375 21.0625 C16.00799083 24.91609626 15.67555523 26.32444477 13 29 C12.071875 28.835 11.14375 28.67 10.1875 28.5 C7.04378647 27.92251612 7.04378647 27.92251612 4 28 C2.32900023 27.68911632 0.66128463 27.35919668 -1 27 C-3.09427832 18.37980084 -4.88785533 9.31246682 -1 1 C-0.67 0.67 -0.34 0.34 0 0 Z M7 18 C8 20 8 20 8 20 Z " fill="#D34537" transform="translate(55,45)"/>
<path d="M0 0 C3.39817639 0.53152495 4.98931824 1.7759337 7.22265625 4.34765625 C9.54743849 9.10792464 9.96136698 14.13830655 9.22265625 19.34765625 C7.78515625 22.34765625 7.78515625 22.34765625 5.22265625 24.34765625 C2.14180498 25.37077477 -0.54780505 25.73267243 -3.77734375 25.34765625 C-6.83984375 23.28515625 -6.83984375 23.28515625 -8.77734375 20.34765625 C-9.33984375 17.28515625 -9.33984375 17.28515625 -8.77734375 14.34765625 C-6.70861879 11.51273686 -5.42011085 10.52295637 -2.02734375 9.59765625 C-0.91359375 9.47390625 -0.91359375 9.47390625 0.22265625 9.34765625 C0.22265625 8.02765625 0.22265625 6.70765625 0.22265625 5.34765625 C-0.92203125 6.05921875 -0.92203125 6.05921875 -2.08984375 6.78515625 C-4.77734375 8.34765625 -4.77734375 8.34765625 -7.77734375 9.34765625 C-8.43734375 9.01765625 -9.09734375 8.68765625 -9.77734375 8.34765625 C-10.14342274 3.83268204 -10.14342274 3.83268204 -8.5390625 1.70703125 C-5.77148707 -0.4284815 -3.38658233 -0.12665267 0 0 Z M-0.77734375 14.34765625 C-0.77734375 15.33765625 -0.77734375 16.32765625 -0.77734375 17.34765625 C0.21265625 17.34765625 1.20265625 17.34765625 2.22265625 17.34765625 C2.22265625 16.35765625 2.22265625 15.36765625 2.22265625 14.34765625 C1.23265625 14.34765625 0.24265625 14.34765625 -0.77734375 14.34765625 Z " fill="#4D85D2" transform="translate(100.77734375,132.65234375)"/>
<path d="M0 0 C2.88037703 0.55391866 4.32328817 1.45590449 6.4375 3.46875 C6.8125 6.03125 6.8125 6.03125 6.4375 8.46875 C5.7775 9.12875 5.1175 9.78875 4.4375 10.46875 C3.1175 10.46875 1.7975 10.46875 0.4375 10.46875 C-0.2225 9.14875 -0.8825 7.82875 -1.5625 6.46875 C-2.2225 6.46875 -2.8825 6.46875 -3.5625 6.46875 C-3.5625 7.45875 -3.5625 8.44875 -3.5625 9.46875 C-2.61375 9.9225 -1.665 10.37625 -0.6875 10.84375 C2.4375 12.46875 2.4375 12.46875 4.4375 14.46875 C5.31549405 19.17294968 5.06128518 22.54252352 2.375 26.53125 C-1.2771926 28.94014299 -3.26547741 29.10534594 -7.5625 28.46875 C-9.5 27.40625 -9.5 27.40625 -10.5625 25.46875 C-10.75 21.78125 -10.75 21.78125 -10.5625 18.46875 C-9.2425 17.80875 -7.9225 17.14875 -6.5625 16.46875 C-6.1603125 17.4278125 -6.1603125 17.4278125 -5.75 18.40625 C-4.67582248 20.80006686 -4.67582248 20.80006686 -1.5625 21.46875 C-2.07136646 19.0595795 -2.07136646 19.0595795 -3.5625 16.46875 C-5.23143032 15.45041595 -5.23143032 15.45041595 -7.125 14.59375 C-10.32391304 12.94075519 -10.47642759 12.71790698 -11.75 9.03125 C-11.5625 5.46875 -11.5625 5.46875 -10.25 2.53125 C-6.73515793 -0.16618694 -4.32470299 -0.05274028 0 0 Z " fill="#F6A700" transform="translate(169.5625,86.53125)"/>
<path d="M0 0 C3.09560096 2.04177936 4.6543083 3.52819141 5.515625 7.1953125 C5.69537291 9.67093142 5.64260003 11.60036072 5 14 C2.33462888 16.36248804 0.04354281 17.5941778 -3.25 18.875 C-5.34403371 19.96074465 -5.34403371 19.96074465 -6 23.0625 C-7 26 -7 26 -9 27 C-9.66 27 -10.32 27 -11 27 C-13.58300647 24.41699353 -13.28817863 22.60067348 -13.32226562 19.07421875 C-13.31904297 18.30722656 -13.31582031 17.54023437 -13.3125 16.75 C-13.32861328 15.99847656 -13.34472656 15.24695312 -13.36132812 14.47265625 C-13.36558788 9.59097368 -12.72357831 6.20974633 -10 2 C-6.24952518 -0.50031654 -4.44143734 -0.53603554 0 0 Z M-5 7 C-4.67 8.32 -4.34 9.64 -4 11 C-3.34 10.67 -2.68 10.34 -2 10 C-2.33 9.01 -2.66 8.02 -3 7 C-3.66 7 -4.32 7 -5 7 Z " fill="#D34537" transform="translate(123,46)"/>
<path d="M0 0 C2.18513875 1.56716965 2.89262439 2.47473012 3.43359375 5.12109375 C3.44423411 11.43082505 3.44423411 11.43082505 1 14.5625 C0.34 15.036875 -0.32 15.51125 -1 16 C0.32 16.33 1.64 16.66 3 17 C2.67 18.65 2.34 20.3 2 22 C-1.69798008 23.23266003 -5.15521703 23.58136839 -9 23 C-11.43119623 21.12984906 -12.64069173 19.71861655 -14 17 C-14.52802088 12.18721956 -14.85640895 7.61076795 -12.125 3.4375 C-8.7214049 -0.46662379 -5.0190141 -0.83484591 0 0 Z " fill="#F1A200" transform="translate(134,89)"/>
<path d="M0 0 C3.02701682 0.44029336 4.94797536 0.77648294 7.4375 2.5 C9.02520472 5.67540944 8.84850302 9.04190559 8.4375 12.5 C6.89411909 14.67476401 5.80084727 15.31832637 3.4375 16.5 C5.0875 16.83 6.7375 17.16 8.4375 17.5 C8.1075 19.15 7.7775 20.8 7.4375 22.5 C3.73951992 23.73266003 0.28228297 24.08136839 -3.5625 23.5 C-5.99369623 21.62984906 -7.20319173 20.21861655 -8.5625 17.5 C-9.14926714 12.36997871 -9.67646418 7.15540349 -6.5 2.8125 C-3.5625 0.5 -3.5625 0.5 0 0 Z " fill="#F2A300" transform="translate(51.5625,88.5)"/>
<path d="M0 0 C1.32 0 2.64 0 4 0 C4.33 1.98 4.66 3.96 5 6 C6.98 6.66 8.96 7.32 11 8 C10.67 9.65 10.34 11.3 10 13 C8.02 13.66 6.04 14.32 4 15 C3.67 17.64 3.34 20.28 3 23 C4.32 23 5.64 23 7 23 C7 21.35 7 19.7 7 18 C8.8125 17.3125 8.8125 17.3125 11 17 C12.8125 18 12.8125 18 14 20 C13.875 23.5625 13.875 23.5625 13 27 C8.97297355 29.6846843 5.7286041 29.5643542 1 29 C-2.28931514 27.27310955 -2.8140267 26.5579199 -4 23 C-4.50458051 15.94760723 -4.14781008 8.77488242 -2 2 C-1.34 1.34 -0.68 0.68 0 0 Z " fill="#F6A700" transform="translate(28,86)"/>
<path d="M0 0 C3.25248167 2.65017025 4.44277143 5.71244181 5.046875 9.81640625 C5.28669659 14.2864143 5.1716378 16.65612872 2.625 20.4375 C-0.87312145 22.74477159 -3.12780921 23.375 -7.3125 23.375 C-9.75 22.5 -9.75 22.5 -11.3125 20.375 C-11.87087509 17.27803303 -11.89562289 14.46959278 -11.3125 11.375 C-9.07188325 8.90259532 -7.48320471 8.43190157 -4.3125 7.375 C-3.57926204 5.35991642 -3.57926204 5.35991642 -3.3125 3.375 C-4.034375 3.684375 -4.75625 3.99375 -5.5 4.3125 C-8.11557309 5.30060539 -10.56368982 5.9037754 -13.3125 6.375 C-12.9375 3.4375 -12.9375 3.4375 -12.3125 0.375 C-8.56900712 -1.49674644 -3.9690524 -1.07271687 0 0 Z " fill="#EFA000" transform="translate(75.3125,89.625)"/>
<path d="M0 0 C2 1.0625 2 1.0625 3 3 C3.3125 6.5625 3.3125 6.5625 3 10 C2.34 10.66 1.68 11.32 1 12 C-1.125 11.625 -1.125 11.625 -3 11 C-3 9.68 -3 8.36 -3 7 C-4.32 7.33 -5.64 7.66 -7 8 C-7 10.64 -7 13.28 -7 16 C-4.03 16.33 -1.06 16.66 2 17 C2.33 18.32 2.66 19.64 3 21 C0.39813892 23.60186108 -0.82354355 23.29810177 -4.4375 23.3125 C-5.88962891 23.33763672 -5.88962891 23.33763672 -7.37109375 23.36328125 C-10 23 -10 23 -11.78515625 21.66796875 C-15.20012555 16.97924884 -14.76319259 10.49795051 -14 5 C-10.92344934 -0.51735653 -5.644838 -0.74030662 0 0 Z " fill="#F7A900" transform="translate(96,89)"/>
<path d="M0 0 C1.32 0 2.64 0 4 0 C4.06316406 0.61488281 4.12632813 1.22976562 4.19140625 1.86328125 C4.74701761 6.64407568 4.74701761 6.64407568 7.62109375 10.1953125 C9.38003326 10.89011189 11.19035329 11.45064296 13 12 C15 14 15 14 15.265625 16.53125 C15.26046875 17.5109375 15.2553125 18.490625 15.25 19.5 C15.25515625 20.4796875 15.2603125 21.459375 15.265625 22.46875 C15 25 15 25 13 27 C12.01 27 11.02 27 10 27 C9.34 23.7 8.68 20.4 8 17 C7.01 17 6.02 17 5 17 C4.67 19.97 4.34 22.94 4 26 C2.68 26 1.36 26 0 26 C-2.49924058 21.18995365 -2.29776185 16.5941641 -2.25 11.3125 C-2.25773437 10.44560547 -2.26546875 9.57871094 -2.2734375 8.68554688 C-2.27085938 7.85732422 -2.26828125 7.02910156 -2.265625 6.17578125 C-2.26336914 5.42208252 -2.26111328 4.66838379 -2.25878906 3.8918457 C-2 2 -2 2 0 0 Z " fill="#F7A900" transform="translate(103,87)"/>
<path d="M0 0 C1.34031061 2.36149965 1.89559102 4.3317825 2.3125 7 C3.37615683 10.09427441 5.63775706 11.81946806 8 14 C6.68 14 5.36 14 4 14 C3.67 14.99 3.34 15.98 3 17 C2.01 16.34 1.02 15.68 0 15 C0.33 16.65 0.66 18.3 1 20 C0.401875 19.814375 -0.19625 19.62875 -0.8125 19.4375 C-3.16408762 18.77906313 -3.16408762 18.77906313 -6 20 C-5.67 17.69 -5.34 15.38 -5 13 C-6.98567708 12.8046875 -8.97135417 12.609375 -10.95703125 12.4140625 C-13 12 -13 12 -16 10 C-15.67 9.01 -15.34 8.02 -15 7 C-13.88625 7.7115625 -13.88625 7.7115625 -12.75 8.4375 C-10.38856112 9.77922664 -8.66305078 10.61956417 -6 11 C-5.67 10.67 -5.34 10.34 -5 10 C-5.99 10 -6.98 10 -8 10 C-8 9.34 -8 8.68 -8 8 C-8.66 8 -9.32 8 -10 8 C-10.25 5.1875 -10.25 5.1875 -10 2 C-6.99322468 -1.58500134 -4.27345155 -1.48641793 0 0 Z " fill="#EA4233" transform="translate(104,14)"/>
<path d="M0 0 C1.5 2.3125 1.5 2.3125 2 5 C1.4375 7.1875 1.4375 7.1875 0 9 C-2.4375 10.3125 -2.4375 10.3125 -5 11 C-5.99 10.67 -6.98 10.34 -8 10 C-8 9.34 -8 8.68 -8 8 C-8.66 8 -9.32 8 -10 8 C-10.25 5.1875 -10.25 5.1875 -10 2 C-6.99322468 -1.58500134 -4.27345155 -1.48641793 0 0 Z " fill="#F8982E" transform="translate(104,14)"/>
<path d="M0 0 C0.53625 0.763125 1.0725 1.52625 1.625 2.3125 C4.21781883 5.2464792 6.47369001 6.39016283 10 8 C12 10 12 10 12 14 C10.0625 13.6875 10.0625 13.6875 8 13 C7.67 12.01 7.34 11.02 7 10 C6.01 10.33 5.02 10.66 4 11 C3.9175 12.11375 3.835 13.2275 3.75 14.375 C3 18 3 18 0.9375 19.4375 C0.298125 19.623125 -0.34125 19.80875 -1 20 C-0.979375 19.13375 -0.95875 18.2675 -0.9375 17.375 C-0.88956699 14.05948158 -0.88956699 14.05948158 -1.625 11.125 C-2.12502858 6.95809516 -1.17688151 4.0152428 0 0 Z " fill="#7C2C03" transform="translate(156,94)"/>
<path d="M0 0 C1.32 0 2.64 0 4 0 C3.875 2.3125 3.875 2.3125 3 5 C2.01 5.45375 1.02 5.9075 0 6.375 C-0.99 6.91125 -1.98 7.4475 -3 8 C-3.97873538 11.59385054 -3.97873538 11.59385054 -4 15 C-4.99 14.67 -5.98 14.34 -7 14 C-9.05893621 13.77674186 -11.12233653 13.59294241 -13.1875 13.4375 C-14.27417969 13.35371094 -15.36085937 13.26992187 -16.48046875 13.18359375 C-17.31191406 13.12300781 -18.14335938 13.06242187 -19 13 C-19 12.67 -19 12.34 -19 12 C-15.7 11.34 -12.4 10.68 -9 10 C-8.67 7.36 -8.34 4.72 -8 2 C-7.34 2.33 -6.68 2.66 -6 3 C-2.73121478 1.96543458 -2.73121478 1.96543458 0 0 Z " fill="#7D2D03" transform="translate(68,93)"/>
<path d="M0 0 C0.66 0.66 1.32 1.32 2 2 C1.8125 4.0625 1.8125 4.0625 1 6 C-1.77052181 6.92350727 -3.56688758 7.16329585 -6.4375 7.1875 C-7.19933594 7.20167969 -7.96117187 7.21585938 -8.74609375 7.23046875 C-11.23347315 6.97612666 -12.84808106 6.24017196 -15 5 C-14.67 4.01 -14.34 3.02 -14 2 C-9.27398116 0.20411284 -5.03729724 -0.39508214 0 0 Z " fill="#D34537" transform="translate(146,141)"/>
<path d="M0 0 C4.35989633 0.08767616 7.43917637 1.37583819 11.3125 3.3125 C10.9825 4.3025 10.6525 5.2925 10.3125 6.3125 C7.50022378 7.24992541 5.72503156 7.44720844 2.8125 7.4375 C2.0390625 7.44007813 1.265625 7.44265625 0.46875 7.4453125 C-1.6875 7.3125 -1.6875 7.3125 -4.6875 6.3125 C-5.5 4.375 -5.5 4.375 -5.6875 2.3125 C-3.6875 0.3125 -3.6875 0.3125 0 0 Z " fill="#D34537" transform="translate(57.6875,140.6875)"/>
<path d="M0 0 C0 0.66 0 1.32 0 2 C-1.7015625 2.556875 -1.7015625 2.556875 -3.4375 3.125 C-5.3814131 3.86637873 -5.3814131 3.86637873 -7 5 C-8.05749557 8.08369887 -8.05749557 8.08369887 -8 11 C-7.34 11 -6.68 11 -6 11 C-6 11.66 -6 12.32 -6 13 C-5.01 13 -4.02 13 -3 13 C-3.33 13.66 -3.66 14.32 -4 15 C-5.31371987 14.52418802 -6.62594546 14.04424851 -7.9375 13.5625 C-8.66839844 13.29566406 -9.39929688 13.02882813 -10.15234375 12.75390625 C-12 12 -12 12 -13 11 C-13.33 11.66 -13.66 12.32 -14 13 C-13.01 13.33 -12.02 13.66 -11 14 C-11.99 14.495 -11.99 14.495 -13 15 C-15.125 14.0625 -15.125 14.0625 -17 13 C-15.63083218 8.07099586 -13.23314455 6.64571534 -9 4 C-8.34 3.01 -7.68 2.02 -7 1 C-4 0 -4 0 0 0 Z " fill="#F9E7DD" transform="translate(102,11)"/>
<path d="M0 0 C1.58367747 0.14204741 3.16693318 0.28880153 4.75 0.4375 C5.63171875 0.51871094 6.5134375 0.59992187 7.421875 0.68359375 C9.69350452 0.96238465 11.79851823 1.38790577 14 2 C13.67 3.32 13.34 4.64 13 6 C10.92446352 6.5534764 9.15634036 7 7 7 C6.01 7.66 5.02 8.32 4 9 C2.00902154 6.01353231 1.05875074 3.40312738 0 0 Z " fill="#F9D6B7" transform="translate(85,25)"/>
<path d="M0 0 C19.14 0 38.28 0 58 0 C58 0.33 58 0.66 58 1 C38.86 1 19.72 1 0 1 C0 0.67 0 0.34 0 0 Z " fill="#6F1F04" transform="translate(71,126)"/>
<path d="M0 0 C-0.0625 2.25 -0.0625 2.25 -1 5 C-3.24865149 6.86135162 -5.27982948 7.78061322 -8 9 C-8.99 8.67 -9.98 8.34 -11 8 C-8.90751135 2.67366525 -5.73537573 0 0 0 Z " fill="#D34537" transform="translate(142,131)"/>
<path d="M0 0 C5.44433259 -0.02479204 10.88863203 -0.04290359 16.33300781 -0.05493164 C18.18359958 -0.05994811 20.0341874 -0.06676282 21.88476562 -0.07543945 C24.55079117 -0.0876229 27.21676412 -0.09325528 29.8828125 -0.09765625 C30.70492218 -0.10281754 31.52703186 -0.10797882 32.37405396 -0.11329651 C36.69923396 -0.11371514 40.74008134 0.13423594 45 1 C45 1.33 45 1.66 45 2 C30.48 2 15.96 2 1 2 C0.67 1.34 0.34 0.68 0 0 Z " fill="#85270F" transform="translate(77,73)"/>
<path d="M0 0 C3.61941735 1.50239966 6.7321794 2.82145293 10 5 C10 6.32 10 7.64 10 9 C4.64951939 8.62671065 2.49087093 7.0042343 -1 3 C-0.67 2.01 -0.34 1.02 0 0 Z " fill="#D24436" transform="translate(132,150)"/>
<path d="M0 0 C4.83256305 0.41421969 6.82679218 2.46413986 10 6 C9.67 6.99 9.34 7.98 9 9 C5.38058265 7.49760034 2.2678206 6.17854707 -1 4 C-0.67 2.68 -0.34 1.36 0 0 Z " fill="#D34537" transform="translate(59,131)"/>
<path d="M0 0 C0.66 0.33 1.32 0.66 2 1 C0.55481219 4.3721049 -1.12350453 6.69880363 -4 9 C-6.75 9.25 -6.75 9.25 -9 9 C-8.63030147 6.34385824 -8.29524408 5.25241746 -6.22265625 3.48046875 C-5.50980469 3.05378906 -4.79695313 2.62710938 -4.0625 2.1875 C-3.35222656 1.74792969 -2.64195313 1.30835938 -1.91015625 0.85546875 C-1.27980469 0.57316406 -0.64945313 0.29085937 0 0 Z " fill="#D34536" transform="translate(67,150)"/>
<path d="M0 0 C1.34061543 0.30271961 2.67405895 0.63837971 4 1 C4.99 0.67 5.98 0.34 7 0 C7.33 0.99 7.66 1.98 8 3 C8.99 2.67 9.98 2.34 11 2 C13.1875 2.9375 13.1875 2.9375 15 4 C15 4.66 15 5.32 15 6 C11.7 6 8.4 6 5 6 C5 5.34 5 4.68 5 4 C2.69 3.34 0.38 2.68 -2 2 C-1.34 1.34 -0.68 0.68 0 0 Z " fill="#FCEBD7" transform="translate(91,30)"/>
<path d="M0 0 C1.32 0.66 2.64 1.32 4 2 C4 3.98 4 5.96 4 8 C2.1875 8.6875 2.1875 8.6875 0 9 C-1.5625 7.6875 -1.5625 7.6875 -3 6 C-3.99 5.34 -4.98 4.68 -6 4 C-4.35 3.67 -2.7 3.34 -1 3 C-0.67 2.01 -0.34 1.02 0 0 Z " fill="#7D2D03" transform="translate(39,95)"/>
<path d="M0 0 C0.66 0.99 1.32 1.98 2 3 C2 2.01 2 1.02 2 0 C2.99 0 3.98 0 5 0 C5 1.98 5 3.96 5 6 C3.35 6.33 1.7 6.66 0 7 C-0.38133299 5.0085944 -0.71325582 3.00720923 -1 1 C-0.67 0.67 -0.34 0.34 0 0 Z " fill="#FEC138" transform="translate(98,16)"/>
<path d="M0 0 C0 0.66 0 1.32 0 2 C-1.7015625 2.556875 -1.7015625 2.556875 -3.4375 3.125 C-5.3814131 3.86637873 -5.3814131 3.86637873 -7 5 C-8.05749557 8.08369887 -8.05749557 8.08369887 -8 11 C-9.125 9.3125 -9.125 9.3125 -10 7 C-9.28097606 3.98009947 -8.68990647 2.48293453 -6.125 0.6875 C-4 0 -4 0 0 0 Z " fill="#FDF3EB" transform="translate(102,11)"/>
<path d="M0 0 C1.32 0 2.64 0 4 0 C3.67 1.65 3.34 3.3 3 5 C1.35 5 -0.3 5 -2 5 C-1.125 1.125 -1.125 1.125 0 0 Z " fill="#722204" transform="translate(68,93)"/>
<path d="M0 0 C1.32 0 2.64 0 4 0 C4.33 1.65 4.66 3.3 5 5 C4.401875 4.814375 3.80375 4.62875 3.1875 4.4375 C0.83591238 3.77906313 0.83591238 3.77906313 -2 5 C-1.125 1.125 -1.125 1.125 0 0 Z " fill="#F34943" transform="translate(100,29)"/>
<path d="M0 0 C1.65 0.99 3.3 1.98 5 3 C4.360625 3.103125 3.72125 3.20625 3.0625 3.3125 C2.381875 3.539375 1.70125 3.76625 1 4 C0.67 4.99 0.34 5.98 0 7 C-0.99 6.01 -1.98 5.02 -3 4 C-2.01 3.67 -1.02 3.34 0 3 C0 2.01 0 1.02 0 0 Z " fill="#F64C48" transform="translate(107,24)"/>
<path d="M0 0 C3.63 1.65 7.26 3.3 11 5 C5.86057616 6.28485596 4.62164416 5.22194431 0 3 C0 2.01 0 1.02 0 0 Z " fill="#AB796B" transform="translate(88,21)"/>
<path d="M0 0 C0.33 0 0.66 0 1 0 C1.33 3.63 1.66 7.26 2 11 C0.35 11.66 -1.3 12.32 -3 13 C-2.690625 12.34 -2.38125 11.68 -2.0625 11 C-0.75039745 7.29523985 -0.39735865 3.90736009 0 0 Z " fill="#823203" transform="translate(81,97)"/>
<path d="M0 0 C4.62 0 9.24 0 14 0 C14 0.66 14 1.32 14 2 C9.71 2 5.42 2 1 2 C0.67 1.34 0.34 0.68 0 0 Z " fill="#932C16" transform="translate(55,74)"/>
<path d="M0 0 C0.99 0.33 1.98 0.66 3 1 C3 2.32 3 3.64 3 5 C1.68 5.33 0.36 5.66 -1 6 C-1.042721 4.33388095 -1.04063832 2.66617115 -1 1 C-0.67 0.67 -0.34 0.34 0 0 Z " fill="#DF3328" transform="translate(100,24)"/>
<path d="M0 0 C1.32 1.32 2.64 2.64 4 4 C2.515 6.475 2.515 6.475 1 9 C0.34 8.67 -0.32 8.34 -1 8 C-0.67 5.36 -0.34 2.72 0 0 Z " fill="#863503" transform="translate(118,104)"/>
<path d="M0 0 C1.32 0.33 2.64 0.66 4 1 C3.67 2.32 3.34 3.64 3 5 C2.01 5 1.02 5 0 5 C0 3.35 0 1.7 0 0 Z " fill="#752504" transform="translate(146,93)"/>
<path d="M0 0 C1.62463842 -0.05395478 3.24978541 -0.09277195 4.875 -0.125 C5.77992188 -0.14820312 6.68484375 -0.17140625 7.6171875 -0.1953125 C10 0 10 0 12 2 C7.71 2 3.42 2 -1 2 C-0.67 1.34 -0.34 0.68 0 0 Z " fill="#8F2B14" transform="translate(132,74)"/>
<path d="M0 0 C2 3 2 3 1.7578125 5.04296875 C1.171875 7.02864583 0.5859375 9.01432292 0 11 C-1.35015859 6.94952424 -0.62084998 4.2079832 0 0 Z " fill="#7771A2" transform="translate(129,144)"/>
<path d="M0 0 C3.96 0 7.92 0 12 0 C12 0.33 12 0.66 12 1 C8.04 1 4.08 1 0 1 C0 0.67 0 0.34 0 0 Z " fill="#6F1F04" transform="translate(137,125)"/>
<path d="M0 0 C3.96 0 7.92 0 12 0 C12 0.33 12 0.66 12 1 C8.04 1 4.08 1 0 1 C0 0.67 0 0.34 0 0 Z " fill="#6F1F04" transform="translate(51,125)"/>
<path d="M0 0 C0.33 0 0.66 0 1 0 C1 1.98 1 3.96 1 6 C1.99 6.33 2.98 6.66 4 7 C2.68 7 1.36 7 0 7 C0 4.69 0 2.38 0 0 Z " fill="#D34537" transform="translate(61,47)"/>
<path d="M0 0 C0 0.66 0 1.32 0 2 C-1.98 2.33 -3.96 2.66 -6 3 C-2.25 0 -2.25 0 0 0 Z " fill="#D34537" transform="translate(138,139)"/>
<path d="M0 0 C2.64 0 5.28 0 8 0 C8 0.33 8 0.66 8 1 C5.36 1 2.72 1 0 1 C0 0.67 0 0.34 0 0 Z " fill="#6F1F04" transform="translate(152,124)"/>
<path d="M0 0 C2.64 0 5.28 0 8 0 C8 0.33 8 0.66 8 1 C5.36 1 2.72 1 0 1 C0 0.67 0 0.34 0 0 Z " fill="#6F1F04" transform="translate(40,124)"/>
<path d="M0 0 C2.64 0 5.28 0 8 0 C8 0.33 8 0.66 8 1 C5.36 1 2.72 1 0 1 C0 0.67 0 0.34 0 0 Z " fill="#D34537" transform="translate(74,45)"/>
<path d="M0 0 C2.31 0 4.62 0 7 0 C7 0.33 7 0.66 7 1 C4.69 1 2.38 1 0 1 C0 0.67 0 0.34 0 0 Z " fill="#D34437" transform="translate(137,149)"/>
<path d="M0 0 C2.31 0 4.62 0 7 0 C7 0.33 7 0.66 7 1 C4.69 1 2.38 1 0 1 C0 0.67 0 0.34 0 0 Z " fill="#6F1F04" transform="translate(148,76)"/>
<path d="M0 0 C2.31 0 4.62 0 7 0 C7 0.33 7 0.66 7 1 C4.69 1 2.38 1 0 1 C0 0.67 0 0.34 0 0 Z " fill="#6F1F05" transform="translate(46,76)"/>
<path d="M0 0 C0.99 0.33 1.98 0.66 3 1 C2.34 1 1.68 1 1 1 C0.67 2.32 0.34 3.64 0 5 C0 3.35 0 1.7 0 0 Z " fill="#D34537" transform="translate(99,65)"/>
<path d="M0 0 C0.66 0 1.32 0 2 0 C2 0.66 2 1.32 2 2 C0.68 2.33 -0.64 2.66 -2 3 C-1.34 2.01 -0.68 1.02 0 0 Z " fill="#D34537" transform="translate(78,53)"/>
<path d="M0 0 C2.31 0 4.62 0 7 0 C7 0.33 7 0.66 7 1 C4.69 1 2.38 1 0 1 C0 0.67 0 0.34 0 0 Z " fill="#D34537" transform="translate(116,44)"/>
<path d="M0 0 C2.31 0 4.62 0 7 0 C7 0.33 7 0.66 7 1 C4.69 1 2.38 1 0 1 C0 0.67 0 0.34 0 0 Z " fill="#D34437" transform="translate(97,44)"/>
<path d="M0 0 C1.98 0 3.96 0 6 0 C6 0.33 6 0.66 6 1 C4.02 1 2.04 1 0 1 C0 0.67 0 0.34 0 0 Z " fill="#4D85D2" transform="translate(115,161)"/>
<path d="M0 0 C1.98 0 3.96 0 6 0 C6 0.33 6 0.66 6 1 C4.02 1 2.04 1 0 1 C0 0.67 0 0.34 0 0 Z " fill="#4D85D2" transform="translate(97,159)"/>
<path d="M0 0 C0.33 0 0.66 0 1 0 C1 1.65 1 3.3 1 5 C0.34 4.01 -0.32 3.02 -1 2 C-0.67 1.34 -0.34 0.68 0 0 Z " fill="#8C678A" transform="translate(70,151)"/>
<path d="M0 0 C1.98 0 3.96 0 6 0 C6 0.33 6 0.66 6 1 C4.02 1 2.04 1 0 1 C0 0.67 0 0.34 0 0 Z " fill="#D34437" transform="translate(57,149)"/>
<path d="M0 0 C1.32 0.33 2.64 0.66 4 1 C3.01 1.33 2.02 1.66 1 2 C0.67 1.34 0.34 0.68 0 0 Z " fill="#D34637" transform="translate(132,148)"/>
<path d="M0 0 C0.66 0.66 1.32 1.32 2 2 C1.01 3.485 1.01 3.485 0 5 C0 3.35 0 1.7 0 0 Z " fill="#7F6E99" transform="translate(70,144)"/>
<path d="M0 0 C1.98 0 3.96 0 6 0 C6 0.33 6 0.66 6 1 C4.02 1 2.04 1 0 1 C0 0.67 0 0.34 0 0 Z " fill="#D34437" transform="translate(140,139)"/>
<path d="M0 0 C1.98 0.99 1.98 0.99 4 2 C2.68 2 1.36 2 0 2 C0 1.34 0 0.68 0 0 Z " fill="#D34537" transform="translate(62,139)"/>
<path d="M0 0 C1.98 0 3.96 0 6 0 C6 0.33 6 0.66 6 1 C4.02 1 2.04 1 0 1 C0 0.67 0 0.34 0 0 Z " fill="#D34537" transform="translate(55,139)"/>
<path d="M0 0 C0.33 0 0.66 0 1 0 C1 1.98 1 3.96 1 6 C0.67 6 0.34 6 0 6 C0 4.02 0 2.04 0 0 Z " fill="#D34537" transform="translate(148,60)"/>
<path d="M0 0 C0.33 0 0.66 0 1 0 C1 1.98 1 3.96 1 6 C0.67 6 0.34 6 0 6 C0 4.02 0 2.04 0 0 Z " fill="#D34537" transform="translate(149,51)"/>
<path d="M0 0 C1.65 0 3.3 0 5 0 C5 0.33 5 0.66 5 1 C3.35 1 1.7 1 0 1 C0 0.67 0 0.34 0 0 Z " fill="#4D85D2" transform="translate(79,162)"/>
<path d="M0 0 C0.66 0 1.32 0 2 0 C1.67 0.99 1.34 1.98 1 3 C0.67 2.01 0.34 1.02 0 0 Z " fill="#4D85D2" transform="translate(80,149)"/>
<path d="M0 0 C0.66 0.33 1.32 0.66 2 1 C0.68 1.33 -0.64 1.66 -2 2 C-1.34 1.34 -0.68 0.68 0 0 Z " fill="#D34537" transform="translate(66,148)"/>
<path d="M0 0 C0.66 0 1.32 0 2 0 C2 0.66 2 1.32 2 2 C1.01 1.67 0.02 1.34 -1 1 C-0.67 0.67 -0.34 0.34 0 0 Z " fill="#4D85D2" transform="translate(98,139)"/>
<path d="M0 0 C1.65 0 3.3 0 5 0 C5 0.33 5 0.66 5 1 C3.35 1 1.7 1 0 1 C0 0.67 0 0.34 0 0 Z " fill="#4D85D2" transform="translate(122,131)"/>
<path d="M0 0 C1.65 0 3.3 0 5 0 C5 0.33 5 0.66 5 1 C3.35 1 1.7 1 0 1 C0 0.67 0 0.34 0 0 Z " fill="#6F1F04" transform="translate(163,123)"/>
<path d="M0 0 C1.65 0 3.3 0 5 0 C5 0.33 5 0.66 5 1 C3.35 1 1.7 1 0 1 C0 0.67 0 0.34 0 0 Z " fill="#6F1F04" transform="translate(32,123)"/>
<path d="M0 0 C1.65 0 3.3 0 5 0 C5 0.33 5 0.66 5 1 C3.35 1 1.7 1 0 1 C0 0.67 0 0.34 0 0 Z " fill="#6F1F04" transform="translate(157,77)"/>
<path d="M0 0 C1.65 0 3.3 0 5 0 C5 0.33 5 0.66 5 1 C3.35 1 1.7 1 0 1 C0 0.67 0 0.34 0 0 Z " fill="#6F1F04" transform="translate(39,77)"/>
<path d="M0 0 C0.33 0 0.66 0 1 0 C1 1.65 1 3.3 1 5 C0.67 5 0.34 5 0 5 C0 3.35 0 1.7 0 0 Z " fill="#D34437" transform="translate(128,65)"/>
<path d="M0 0 C0.33 0 0.66 0 1 0 C1 1.65 1 3.3 1 5 C0.67 5 0.34 5 0 5 C0 3.35 0 1.7 0 0 Z " fill="#D34537" transform="translate(118,66)"/>
<path d="M0 0 C0.33 0 0.66 0 1 0 C1 1.65 1 3.3 1 5 C0.67 5 0.34 5 0 5 C0 3.35 0 1.7 0 0 Z " fill="#D34538" transform="translate(51,64)"/>
<path d="M0 0 C0.33 0.99 0.66 1.98 1 3 C0.34 3 -0.32 3 -1 3 C-0.67 2.01 -0.34 1.02 0 0 Z " fill="#D34537" transform="translate(90,50)"/>
<path d="M0 0 C0.33 0 0.66 0 1 0 C1 1.65 1 3.3 1 5 C0.67 5 0.34 5 0 5 C0 3.35 0 1.7 0 0 Z " fill="#D34537" transform="translate(69,50)"/>
<path d="M0 0 C1.65 0 3.3 0 5 0 C5 0.33 5 0.66 5 1 C3.35 1 1.7 1 0 1 C0 0.67 0 0.34 0 0 Z " fill="#D34437" transform="translate(141,45)"/>
<path d="M0 0 C0.33 0 0.66 0 1 0 C1 1.65 1 3.3 1 5 C0.67 5 0.34 5 0 5 C0 3.35 0 1.7 0 0 Z " fill="#FADFAA" transform="translate(109,17)"/>
<path d="M0 0 C4 1 4 1 4 1 Z " fill="#D34537" transform="translate(138,160)"/>
<path d="M0 0 C4 1 4 1 4 1 Z " fill="#D24737" transform="translate(59,160)"/>
<path d="M0 0 C1 4 1 4 1 4 Z " fill="#D34637" transform="translate(143,155)"/>
<path d="M0 0 C0.66 0.66 1.32 1.32 2 2 C1.01 2.495 1.01 2.495 0 3 C0 2.01 0 1.02 0 0 Z " fill="#4D85D2" transform="translate(111,146)"/>
<path d="M0 0 C1 4 1 4 1 4 Z " fill="#4D85D3" transform="translate(79,132)"/>
<path d="M0 0 C4 1 4 1 4 1 Z " fill="#4D85D2" transform="translate(99,131)"/>
<path d="M0 0 C4 1 4 1 4 1 Z " fill="#6F1F04" transform="translate(163,78)"/>
<path d="M0 0 C4 1 4 1 4 1 Z " fill="#6F1F04" transform="translate(33,78)"/>
<path d="M0 0 C0 3 0 3 0 3 Z " fill="#D34537" transform="translate(110,49)"/>
<path d="M0 0 C0 3 0 3 0 3 Z " fill="#D34537" transform="translate(127,46)"/>
<path d="M0 0 C4 1 4 1 4 1 Z " fill="#FAE4B6" transform="translate(103,37)"/>
<path d="M0 0 C4 1 4 1 4 1 Z " fill="#FAE3B2" transform="translate(96,37)"/>
<path d="M0 0 C0.33 0.66 0.66 1.32 1 2 C0.34 1.67 -0.32 1.34 -1 1 C-0.67 0.67 -0.34 0.34 0 0 Z " fill="#4D85D2" transform="translate(109,154)"/>
<path d="" fill="#D34537" transform="translate(0,0)"/>
<path d="" fill="#4D85D4" transform="translate(0,0)"/>
<path d="M0 0 C3 1 3 1 3 1 Z " fill="#4E86D2" transform="translate(77,140)"/>
<path d="M0 0 C0.66 0 1.32 0 2 0 C1.67 0.66 1.34 1.32 1 2 C0.67 1.34 0.34 0.68 0 0 Z " fill="#4E86D2" transform="translate(106,134)"/>
<path d="" fill="#D34537" transform="translate(0,0)"/>
<path d="M0 0 C3 1 3 1 3 1 Z " fill="#D34537" transform="translate(138,129)"/>
<path d="M0 0 C3 1 3 1 3 1 Z " fill="#D34537" transform="translate(59,129)"/>
<path d="M0 0 C3 1 3 1 3 1 Z " fill="#6F1F04" transform="translate(170,122)"/>
<path d="M0 0 C3 1 3 1 3 1 Z " fill="#6F1F04" transform="translate(27,122)"/>
<path d="M0 0 C3 1 3 1 3 1 Z " fill="#6F1F04" transform="translate(174,121)"/>
<path d="" fill="#702006" transform="translate(0,0)"/>
<path d="" fill="#6F2005" transform="translate(0,0)"/>
<path d="" fill="#6F1E03" transform="translate(0,0)"/>
<path d="" fill="#701F05" transform="translate(0,0)"/>
<path d="" fill="#6F1F04" transform="translate(0,0)"/>
<path d="M0 0 C3 1 3 1 3 1 Z " fill="#702104" transform="translate(30,79)"/>
<path d="M0 0 C0.33 0.66 0.66 1.32 1 2 C0.34 1.67 -0.32 1.34 -1 1 C-0.67 0.67 -0.34 0.34 0 0 Z " fill="#D34638" transform="translate(108,61)"/>
<path d="" fill="#D34537" transform="translate(0,0)"/>
<path d="M0 0 C3 1 3 1 3 1 Z " fill="#D34537" transform="translate(55,43)"/>
<path d="M0 0 C2 1 2 1 2 1 Z " fill="#4D85D3" transform="translate(76,161)"/>
<path d="M0 0 C2 1 2 1 2 1 Z " fill="#4E86D2" transform="translate(121,160)"/>
<path d="M0 0 C2 1 2 1 2 1 Z " fill="#4E86D1" transform="translate(86,160)"/>
<path d="M0 0 C2 1 2 1 2 1 Z " fill="#4D85D0" transform="translate(123,159)"/>
<path d="M0 0 C2 1 2 1 2 1 Z " fill="#4D85D2" transform="translate(95,158)"/>
<path d="M0 0 C2 1 2 1 2 1 Z " fill="#D34638" transform="translate(65,157)"/>
<path d="" fill="#D34537" transform="translate(0,0)"/>
<path d="" fill="#4D85D2" transform="translate(0,0)"/>
<path d="M0 0 C2 1 2 1 2 1 Z " fill="#D34537" transform="translate(139,152)"/>
<path d="M0 0 C2 1 2 1 2 1 Z " fill="#D34637" transform="translate(61,151)"/>
<path d="M0 0 C2 1 2 1 2 1 Z " fill="#D34537" transform="translate(145,148)"/>
<path d="" fill="#D34537" transform="translate(0,0)"/>
<path d="M0 0 C2 1 2 1 2 1 Z " fill="#D34537" transform="translate(66,141)"/>
<path d="" fill="#D34537" transform="translate(0,0)"/>
<path d="M0 0 C2 1 2 1 2 1 Z " fill="#D34437" transform="translate(59,137)"/>
<path d="" fill="#4E85D2" transform="translate(0,0)"/>
<path d="" fill="#4E85D3" transform="translate(0,0)"/>
<path d="" fill="#4E86D1" transform="translate(0,0)"/>
<path d="" fill="#4E85D1" transform="translate(0,0)"/>
<path d="" fill="#4D85D1" transform="translate(0,0)"/>
<path d="" fill="#D34537" transform="translate(0,0)"/>
<path d="M0 0 C2 1 2 1 2 1 Z " fill="#4E85D2" transform="translate(103,132)"/>
<path d="M0 0 C2 1 2 1 2 1 Z " fill="#4D85D2" transform="translate(95,131)"/>
<path d="" fill="#4C84D2" transform="translate(0,0)"/>
<path d="M0 0 C2 1 2 1 2 1 Z " fill="#D34538" transform="translate(136,130)"/>
<path d="M0 0 C2 1 2 1 2 1 Z " fill="#4D85D1" transform="translate(114,129)"/>
<path d="M0 0 C2 1 2 1 2 1 Z " fill="#4E86D2" transform="translate(111,129)"/>
<path d="M0 0 C2 1 2 1 2 1 Z " fill="#4E85D1" transform="translate(82,128)"/>
<path d="M0 0 C2 1 2 1 2 1 Z " fill="#6F2005" transform="translate(24,121)"/>
<path d="M0 0 C2 1 2 1 2 1 Z " fill="#6F1F04" transform="translate(177,120)"/>
<path d="M0 0 C2 1 2 1 2 1 Z " fill="#6F1F04" transform="translate(21,120)"/>
<path d="M0 0 C2 1 2 1 2 1 Z " fill="#6F1F04" transform="translate(179,119)"/>
<path d="M0 0 C2 1 2 1 2 1 Z " fill="#6F1F04" transform="translate(19,119)"/>
<path d="M0 0 C2 1 2 1 2 1 Z " fill="#6F1E04" transform="translate(182,117)"/>
<path d="" fill="#6F2006" transform="translate(0,0)"/>
<path d="" fill="#6F1F03" transform="translate(0,0)"/>
<path d="" fill="#702005" transform="translate(0,0)"/>
<path d="" fill="#6F1F04" transform="translate(0,0)"/>
<path d="" fill="#702005" transform="translate(0,0)"/>
<path d="" fill="#6F1F04" transform="translate(0,0)"/>
<path d="" fill="#6F1F04" transform="translate(0,0)"/>
<path d="" fill="#702006" transform="translate(0,0)"/>
<path d="M0 0 C2 1 2 1 2 1 Z " fill="#6F1F05" transform="translate(21,84)"/>
<path d="M0 0 C2 1 2 1 2 1 Z " fill="#6F1F03" transform="translate(176,83)"/>
<path d="M0 0 C2 1 2 1 2 1 Z " fill="#6E1F04" transform="translate(24,82)"/>
<path d="M0 0 C2 1 2 1 2 1 Z " fill="#712005" transform="translate(26,81)"/>
<path d="M0 0 C2 1 2 1 2 1 Z " fill="#6F1F05" transform="translate(28,80)"/>
<path d="M0 0 C2 1 2 1 2 1 Z " fill="#6F1F03" transform="translate(168,79)"/>
<path d="M0 0 C2 1 2 1 2 1 Z " fill="#D24738" transform="translate(83,72)"/>
<path d="M0 0 C2 1 2 1 2 1 Z " fill="#D44538" transform="translate(75,72)"/>
<path d="" fill="#D34638" transform="translate(0,0)"/>
<path d="" fill="#D34536" transform="translate(0,0)"/>
<path d="" fill="#D34537" transform="translate(0,0)"/>
<path d="" fill="#D34537" transform="translate(0,0)"/>
<path d="" fill="#D34638" transform="translate(0,0)"/>
<path d="" fill="#D34536" transform="translate(0,0)"/>
<path d="M0 0 C2 1 2 1 2 1 Z " fill="#D24537" transform="translate(119,65)"/>
<path d="M0 0 C2 1 2 1 2 1 Z " fill="#D34538" transform="translate(122,64)"/>
<path d="M0 0 C2 1 2 1 2 1 Z " fill="#D34537" transform="translate(103,64)"/>
<path d="M0 0 C2 1 2 1 2 1 Z " fill="#D34638" transform="translate(124,63)"/>
<path d="M0 0 C2 1 2 1 2 1 Z " fill="#D34536" transform="translate(105,63)"/>
<path d="M0 0 C2 1 2 1 2 1 Z " fill="#D44739" transform="translate(80,62)"/>
<path d="" fill="#D34537" transform="translate(0,0)"/>
<path d="" fill="#D34537" transform="translate(0,0)"/>
<path d="" fill="#D34537" transform="translate(0,0)"/>
<path d="" fill="#D34639" transform="translate(0,0)"/>
<path d="M0 0 C2 1 2 1 2 1 Z " fill="#D24538" transform="translate(65,54)"/>
<path d="" fill="#D34638" transform="translate(0,0)"/>
<path d="" fill="#D34537" transform="translate(0,0)"/>
<path d="" fill="#D34538" transform="translate(0,0)"/>
<path d="M0 0 C2 1 2 1 2 1 Z " fill="#D34537" transform="translate(83,46)"/>
<path d="M0 0 C2 1 2 1 2 1 Z " fill="#D34536" transform="translate(114,45)"/>
<path d="M0 0 C2 1 2 1 2 1 Z " fill="#D34537" transform="translate(104,45)"/>
<path d="M0 0 C2 1 2 1 2 1 Z " fill="#D24738" transform="translate(95,45)"/>
<path d="M0 0 C2 1 2 1 2 1 Z " fill="#D24538" transform="translate(133,43)"/>
<path d="M0 0 C2 1 2 1 2 1 Z " fill="#D34538" transform="translate(130,43)"/>
<path d="M0 0 C2 1 2 1 2 1 Z " fill="#FCEED1" transform="translate(101,36)"/>
<path d="M0 0 C2 1 2 1 2 1 Z " fill="#FCEAC8" transform="translate(91,34)"/>
<path d="M0 0 C2 1 2 1 2 1 Z " fill="#FBE6BD" transform="translate(111,31)"/>
<path d="" fill="#FEF6E8" transform="translate(0,0)"/>
<path d="" fill="#FDF1DA" transform="translate(0,0)"/>
<path d="M0 0 C2 1 2 1 2 1 Z " fill="#FEF9F1" transform="translate(96,10)"/>
<path d="M0 0 C2 1 2 1 2 1 Z " fill="#FEF8EB" transform="translate(98,9)"/>
<path d="" fill="#4E86D2" transform="translate(0,0)"/>
<path d="" fill="#4D86D2" transform="translate(0,0)"/>
<path d="" fill="#4D86D2" transform="translate(0,0)"/>
<path d="" fill="#D34537" transform="translate(0,0)"/>
<path d="" fill="#D44537" transform="translate(0,0)"/>
<path d="" fill="#4F87D0" transform="translate(0,0)"/>
<path d="" fill="#4D85D2" transform="translate(0,0)"/>
<path d="" fill="#4D85D2" transform="translate(0,0)"/>
<path d="" fill="#D34537" transform="translate(0,0)"/>
<path d="" fill="#D34536" transform="translate(0,0)"/>
<path d="" fill="#4D85D2" transform="translate(0,0)"/>
<path d="" fill="#4F87D3" transform="translate(0,0)"/>
<path d="" fill="#4D86D2" transform="translate(0,0)"/>
<path d="" fill="#4D85D1" transform="translate(0,0)"/>
<path d="" fill="#D24538" transform="translate(0,0)"/>
<path d="" fill="#D24538" transform="translate(0,0)"/>
<path d="" fill="#4C85D3" transform="translate(0,0)"/>
<path d="" fill="#4D86D2" transform="translate(0,0)"/>
<path d="" fill="#4D84D2" transform="translate(0,0)"/>
<path d="" fill="#4E86D2" transform="translate(0,0)"/>
<path d="" fill="#4F86D2" transform="translate(0,0)"/>
<path d="" fill="#D24738" transform="translate(0,0)"/>
<path d="" fill="#4D86D3" transform="translate(0,0)"/>
<path d="" fill="#4D86D0" transform="translate(0,0)"/>
<path d="" fill="#4E85D2" transform="translate(0,0)"/>
<path d="" fill="#4D85D2" transform="translate(0,0)"/>
<path d="" fill="#D44436" transform="translate(0,0)"/>
<path d="" fill="#D24738" transform="translate(0,0)"/>
<path d="" fill="#4D85D3" transform="translate(0,0)"/>
<path d="" fill="#4D85D1" transform="translate(0,0)"/>
<path d="" fill="#D24739" transform="translate(0,0)"/>
<path d="" fill="#D34536" transform="translate(0,0)"/>
<path d="" fill="#D34538" transform="translate(0,0)"/>
<path d="" fill="#D3453C" transform="translate(0,0)"/>
<path d="" fill="#D34536" transform="translate(0,0)"/>
<path d="" fill="#D34537" transform="translate(0,0)"/>
<path d="" fill="#D34538" transform="translate(0,0)"/>
<path d="" fill="#D34739" transform="translate(0,0)"/>
<path d="" fill="#D34537" transform="translate(0,0)"/>
<path d="" fill="#D24537" transform="translate(0,0)"/>
<path d="" fill="#906685" transform="translate(0,0)"/>
<path d="" fill="#D34537" transform="translate(0,0)"/>
<path d="" fill="#4D85D2" transform="translate(0,0)"/>
<path d="" fill="#D34537" transform="translate(0,0)"/>
<path d="" fill="#D44537" transform="translate(0,0)"/>
<path d="" fill="#D34638" transform="translate(0,0)"/>
<path d="" fill="#D44436" transform="translate(0,0)"/>
<path d="" fill="#D44537" transform="translate(0,0)"/>
<path d="" fill="#D44436" transform="translate(0,0)"/>
<path d="" fill="#4D85D3" transform="translate(0,0)"/>
<path d="" fill="#4E87D2" transform="translate(0,0)"/>
<path d="" fill="#B1565F" transform="translate(0,0)"/>
<path d="" fill="#4E85D3" transform="translate(0,0)"/>
<path d="" fill="#D34638" transform="translate(0,0)"/>
<path d="" fill="#D34637" transform="translate(0,0)"/>
<path d="" fill="#5085D3" transform="translate(0,0)"/>
<path d="" fill="#4F87D3" transform="translate(0,0)"/>
<path d="" fill="#D54837" transform="translate(0,0)"/>
<path d="" fill="#D34638" transform="translate(0,0)"/>
<path d="" fill="#4F86D3" transform="translate(0,0)"/>
<path d="" fill="#4D85D2" transform="translate(0,0)"/>
<path d="" fill="#D44739" transform="translate(0,0)"/>
<path d="" fill="#D44737" transform="translate(0,0)"/>
<path d="" fill="#D34537" transform="translate(0,0)"/>
<path d="" fill="#5087D3" transform="translate(0,0)"/>
<path d="" fill="#D34537" transform="translate(0,0)"/>
<path d="" fill="#D34537" transform="translate(0,0)"/>
<path d="" fill="#D34537" transform="translate(0,0)"/>
<path d="" fill="#D34537" transform="translate(0,0)"/>
<path d="" fill="#B95257" transform="translate(0,0)"/>
<path d="" fill="#4E86D1" transform="translate(0,0)"/>
<path d="" fill="#D44637" transform="translate(0,0)"/>
<path d="" fill="#D34437" transform="translate(0,0)"/>
<path d="" fill="#D34538" transform="translate(0,0)"/>
<path d="" fill="#D44637" transform="translate(0,0)"/>
<path d="" fill="#D34638" transform="translate(0,0)"/>
<path d="" fill="#D44437" transform="translate(0,0)"/>
<path d="" fill="#D34638" transform="translate(0,0)"/>
<path d="" fill="#4F87D0" transform="translate(0,0)"/>
<path d="" fill="#D34639" transform="translate(0,0)"/>
<path d="" fill="#D34538" transform="translate(0,0)"/>
<path d="" fill="#4D85D2" transform="translate(0,0)"/>
<path d="" fill="#4E84D1" transform="translate(0,0)"/>
<path d="" fill="#4F87D2" transform="translate(0,0)"/>
<path d="" fill="#4F86D1" transform="translate(0,0)"/>
<path d="" fill="#D34539" transform="translate(0,0)"/>
<path d="" fill="#D34537" transform="translate(0,0)"/>
<path d="" fill="#4E85D2" transform="translate(0,0)"/>
<path d="" fill="#4E84D2" transform="translate(0,0)"/>
<path d="" fill="#4E85D2" transform="translate(0,0)"/>
<path d="" fill="#D34537" transform="translate(0,0)"/>
<path d="" fill="#D34537" transform="translate(0,0)"/>
<path d="" fill="#4D86D2" transform="translate(0,0)"/>
<path d="" fill="#4D85D1" transform="translate(0,0)"/>
<path d="" fill="#4D86D1" transform="translate(0,0)"/>
<path d="" fill="#D44537" transform="translate(0,0)"/>
<path d="" fill="#4D85D2" transform="translate(0,0)"/>
<path d="" fill="#4E85D2" transform="translate(0,0)"/>
<path d="" fill="#D34537" transform="translate(0,0)"/>
<path d="" fill="#4C84D2" transform="translate(0,0)"/>
<path d="" fill="#4D85D2" transform="translate(0,0)"/>
<path d="" fill="#701F05" transform="translate(0,0)"/>
<path d="" fill="#6F1F04" transform="translate(0,0)"/>
<path d="" fill="#712005" transform="translate(0,0)"/>
<path d="" fill="#6F1F03" transform="translate(0,0)"/>
<path d="" fill="#6F1F04" transform="translate(0,0)"/>
<path d="" fill="#6F1F03" transform="translate(0,0)"/>
<path d="" fill="#6F1F04" transform="translate(0,0)"/>
<path d="" fill="#6F1F03" transform="translate(0,0)"/>
<path d="" fill="#712105" transform="translate(0,0)"/>
<path d="" fill="#702005" transform="translate(0,0)"/>
<path d="" fill="#701F04" transform="translate(0,0)"/>
<path d="" fill="#6F2005" transform="translate(0,0)"/>
<path d="" fill="#6F1E04" transform="translate(0,0)"/>
<path d="" fill="#6F2004" transform="translate(0,0)"/>
<path d="" fill="#6F1F04" transform="translate(0,0)"/>
<path d="" fill="#6F2105" transform="translate(0,0)"/>
<path d="" fill="#6F1F05" transform="translate(0,0)"/>
<path d="" fill="#702205" transform="translate(0,0)"/>
<path d="" fill="#701F05" transform="translate(0,0)"/>
<path d="" fill="#702206" transform="translate(0,0)"/>
<path d="" fill="#702005" transform="translate(0,0)"/>
<path d="" fill="#6F2005" transform="translate(0,0)"/>
<path d="" fill="#6F1F04" transform="translate(0,0)"/>
<path d="" fill="#701F04" transform="translate(0,0)"/>
<path d="" fill="#701F04" transform="translate(0,0)"/>
<path d="" fill="#701E03" transform="translate(0,0)"/>
<path d="" fill="#6F1F05" transform="translate(0,0)"/>
<path d="" fill="#6F1F04" transform="translate(0,0)"/>
<path d="" fill="#6F2004" transform="translate(0,0)"/>
<path d="" fill="#6F1F04" transform="translate(0,0)"/>
<path d="" fill="#D44637" transform="translate(0,0)"/>
<path d="" fill="#D54738" transform="translate(0,0)"/>
<path d="" fill="#D34537" transform="translate(0,0)"/>
<path d="" fill="#D34537" transform="translate(0,0)"/>
<path d="" fill="#D54436" transform="translate(0,0)"/>
<path d="" fill="#D34537" transform="translate(0,0)"/>
<path d="" fill="#D34637" transform="translate(0,0)"/>
<path d="" fill="#D24738" transform="translate(0,0)"/>
<path d="" fill="#D34637" transform="translate(0,0)"/>
<path d="" fill="#D34637" transform="translate(0,0)"/>
<path d="" fill="#D34537" transform="translate(0,0)"/>
<path d="" fill="#D54437" transform="translate(0,0)"/>
<path d="" fill="#D34537" transform="translate(0,0)"/>
<path d="" fill="#D34537" transform="translate(0,0)"/>
<path d="" fill="#D24537" transform="translate(0,0)"/>
<path d="" fill="#D34339" transform="translate(0,0)"/>
<path d="" fill="#D34536" transform="translate(0,0)"/>
<path d="" fill="#D34537" transform="translate(0,0)"/>
<path d="" fill="#D34637" transform="translate(0,0)"/>
<path d="" fill="#D44638" transform="translate(0,0)"/>
<path d="" fill="#D44538" transform="translate(0,0)"/>
<path d="" fill="#D44638" transform="translate(0,0)"/>
<path d="" fill="#D4453A" transform="translate(0,0)"/>
<path d="" fill="#D24638" transform="translate(0,0)"/>
<path d="" fill="#D24537" transform="translate(0,0)"/>
<path d="" fill="#D34538" transform="translate(0,0)"/>
<path d="" fill="#D24538" transform="translate(0,0)"/>
<path d="" fill="#D44637" transform="translate(0,0)"/>
<path d="" fill="#D44537" transform="translate(0,0)"/>
<path d="" fill="#D34537" transform="translate(0,0)"/>
<path d="" fill="#D34537" transform="translate(0,0)"/>
<path d="" fill="#D24437" transform="translate(0,0)"/>
<path d="" fill="#D24739" transform="translate(0,0)"/>
<path d="" fill="#D34537" transform="translate(0,0)"/>
<path d="" fill="#D24537" transform="translate(0,0)"/>
<path d="" fill="#D44537" transform="translate(0,0)"/>
<path d="" fill="#D44638" transform="translate(0,0)"/>
<path d="" fill="#D34537" transform="translate(0,0)"/>
<path d="" fill="#D44538" transform="translate(0,0)"/>
<path d="" fill="#D34637" transform="translate(0,0)"/>
<path d="" fill="#D44637" transform="translate(0,0)"/>
<path d="" fill="#D34637" transform="translate(0,0)"/>
<path d="" fill="#D24539" transform="translate(0,0)"/>
<path d="" fill="#D44538" transform="translate(0,0)"/>
<path d="" fill="#D34537" transform="translate(0,0)"/>
<path d="" fill="#D24638" transform="translate(0,0)"/>
<path d="" fill="#D34638" transform="translate(0,0)"/>
<path d="" fill="#D34537" transform="translate(0,0)"/>
<path d="" fill="#D44437" transform="translate(0,0)"/>
<path d="" fill="#D44537" transform="translate(0,0)"/>
<path d="" fill="#D34537" transform="translate(0,0)"/>
<path d="" fill="#D34637" transform="translate(0,0)"/>
<path d="" fill="#D34638" transform="translate(0,0)"/>
<path d="" fill="#D34537" transform="translate(0,0)"/>
<path d="" fill="#D24538" transform="translate(0,0)"/>
<path d="" fill="#D34638" transform="translate(0,0)"/>
<path d="" fill="#D14839" transform="translate(0,0)"/>
<path d="" fill="#D44738" transform="translate(0,0)"/>
<path d="" fill="#D14538" transform="translate(0,0)"/>
<path d="" fill="#D44537" transform="translate(0,0)"/>
<path d="" fill="#D34437" transform="translate(0,0)"/>
<path d="" fill="#D14538" transform="translate(0,0)"/>
<path d="" fill="#D44537" transform="translate(0,0)"/>
<path d="" fill="#D14437" transform="translate(0,0)"/>
<path d="" fill="#FFFDFF" transform="translate(0,0)"/>
<path d="" fill="#F9DA9B" transform="translate(0,0)"/>
<path d="" fill="#FCEED6" transform="translate(0,0)"/>
<path d="" fill="#F9D997" transform="translate(0,0)"/>
<path d="" fill="#FFFFFF" transform="translate(0,0)"/>
<path d="" fill="#FEF9F4" transform="translate(0,0)"/>
<path d="" fill="#F9D791" transform="translate(0,0)"/>
<path d="" fill="#FEFBF6" transform="translate(0,0)"/>
<path d="" fill="#FBE5B8" transform="translate(0,0)"/>
<path d="" fill="#F9DEA6" transform="translate(0,0)"/>
<path d="" fill="#F9DFAA" transform="translate(0,0)"/>
<path d="" fill="#FDEDCE" transform="translate(0,0)"/>
<path d="" fill="#FFFFFB" transform="translate(0,0)"/>
<path d="" fill="#FDF2D9" transform="translate(0,0)"/>
<path d="" fill="#FDF2DB" transform="translate(0,0)"/>
<path d="" fill="#FFFFFF" transform="translate(0,0)"/>
<path d="" fill="#FDF7E4" transform="translate(0,0)"/>
<path d="" fill="#FFF9EC" transform="translate(0,0)"/>
<path d="" fill="#FFFFF5" transform="translate(0,0)"/>
<path d="" fill="#FEFBF1" transform="translate(0,0)"/>
<path d="" fill="#FFFFFF" transform="translate(0,0)"/>
<path d="" fill="#FCE7BA" transform="translate(0,0)"/>
<path d="" fill="#FFFAFC" transform="translate(0,0)"/>
<path d="" fill="#FEF6E9" transform="translate(0,0)"/>
<path d="" fill="#FADAA1" transform="translate(0,0)"/>
<path d="" fill="#FFFFFF" transform="translate(0,0)"/>
<path d="" fill="#FEF6E8" transform="translate(0,0)"/>
<path d="" fill="#FFFFFF" transform="translate(0,0)"/>
<path d="" fill="#FDF6E2" transform="translate(0,0)"/>
</svg>
